<?xml version="1.0" encoding="UTF-8"?>
<svg width="720" height="720" viewBox="0 0 720 720" xmlns="http://www.w3.org/2000/svg" role="img" aria-label="Vitra Imobiliária - selo circular escuro">
  <title>Vitra Imobiliária - selo circular escuro</title>
  <rect width="100%" height="100%" fill="#0A1628"/>
  <circle cx="360" cy="360" r="318" fill="none" stroke="#C4942A" stroke-width="8"/>
  <circle cx="360" cy="360" r="286" fill="none" stroke="rgba(196,148,42,0.18)" stroke-width="4"/>
  <svg x="220" y="220" width="280" height="280" viewBox="0 0 100 100" overflow="visible">
    <g id="vitra-icon-colorido">
    <polygon points="50,4 90,27 90,73 50,96 10,73 10,27" fill="#07111F" stroke="#C4942A" stroke-width="2.5"/>
    <polygon points="50,9 86,29.5 86,70.5 50,91 14,70.5 14,29.5" fill="none" stroke="rgba(212,168,74,0.18)" stroke-width="0.8"/>
    <polygon points="20,33 34,33 27,50" fill="#8EC4F0"/>
    <polygon points="20,33 27,50 50,72" fill="#1B3A6B"/>
    <polygon points="34,33 27,50 50,72" fill="#2E6BB5"/>
    <polygon points="80,33 66,33 73,50" fill="#F0C95C"/>
    <polygon points="80,33 73,50 50,72" fill="#9B7A1C"/>
    <polygon points="66,33 73,50 50,72" fill="#D4A84A"/>
  </g>
  </svg>
</svg>
